<?xml version="1.0" encoding="utf-8"?>
<!-- Generator: Adobe Illustrator 15.0.2, SVG Export Plug-In  -->
<!DOCTYPE svg PUBLIC "-//W3C//DTD SVG 1.1//EN" "http://www.w3.org/Graphics/SVG/1.1/DTD/svg11.dtd" [
	<!ENTITY ns_flows "http://ns.adobe.com/Flows/1.0/">
]>
<svg version="1.1"
	 xmlns="http://www.w3.org/2000/svg" xmlns:xlink="http://www.w3.org/1999/xlink" xmlns:a="http://ns.adobe.com/AdobeSVGViewerExtensions/3.0/"
	 x="0px" y="0px" width="28px" height="28px" viewBox="-4.952 -3.384 28 28"
	 overflow="visible" enable-background="new -4.952 -3.384 28 28" xml:space="preserve">
<defs>
</defs>
<circle fill="#26B99A" cx="15.109" cy="1.748" r="1.48"/>
<path fill="#FFFFFF" d="M15.107,3.497c-0.32,0-0.634-0.089-0.909-0.257C13.8,2.997,13.52,2.613,13.41,2.161
	c-0.11-0.454-0.037-0.925,0.206-1.322C13.936,0.313,14.495,0,15.11,0c0.32,0,0.634,0.088,0.909,0.256
	c0.822,0.501,1.084,1.578,0.583,2.402C16.282,3.184,15.723,3.497,15.107,3.497z M15.11,0.536c-0.427,0-0.814,0.217-1.036,0.581
	c-0.168,0.276-0.219,0.603-0.143,0.917s0.271,0.581,0.547,0.749c0.558,0.339,1.329,0.148,1.667-0.403
	c0.347-0.571,0.166-1.319-0.405-1.666C15.549,0.597,15.331,0.536,15.11,0.536z"/>
<circle fill="#35495E" cx="8.467" cy="13.682" r="5.167"/>
<path fill="#FFFFFF" d="M8.461,19.349c-1.036,0-2.054-0.286-2.943-0.828c-2.668-1.627-3.516-5.121-1.89-7.788
	C4.666,9.03,6.477,8.015,8.472,8.015c1.037,0,2.055,0.287,2.943,0.828c2.668,1.627,3.517,5.12,1.891,7.788
	C12.268,18.333,10.457,19.349,8.461,19.349z M8.472,9.015c-1.644,0-3.136,0.837-3.99,2.238c-1.339,2.196-0.641,5.074,1.558,6.414
	c0.731,0.446,1.569,0.682,2.422,0.682c1.645,0,3.137-0.836,3.991-2.238c1.338-2.197,0.64-5.074-1.558-6.414
	C10.163,9.251,9.324,9.015,8.472,9.015z"/>
<circle fill="#26B99A" cx="12.833" cy="17.52" r="2.763"/>
<path fill="#FFFFFF" d="M12.83,20.784c-0.597,0-1.183-0.166-1.695-0.479c-0.744-0.453-1.268-1.17-1.473-2.016
	c-0.206-0.848-0.069-1.725,0.385-2.469c0.596-0.98,1.639-1.565,2.788-1.565c0.598,0,1.184,0.165,1.696,0.478
	c1.536,0.937,2.024,2.948,1.088,4.484C15.022,20.198,13.979,20.784,12.83,20.784z M12.835,15.256c-0.798,0-1.521,0.405-1.935,1.085
	c-0.314,0.518-0.409,1.125-0.267,1.713s0.505,1.084,1.021,1.398c1.041,0.634,2.481,0.277,3.11-0.754
	c0.649-1.066,0.311-2.461-0.755-3.111C13.654,15.37,13.248,15.256,12.835,15.256z"/>
<circle fill="#26B99A" cx="3.265" cy="13.336" r="2.764"/>
<path fill="#FFFFFF" d="M3.262,16.601c-0.597,0-1.183-0.166-1.695-0.479c-0.744-0.453-1.268-1.17-1.473-2.016
	c-0.206-0.848-0.069-1.725,0.385-2.469c0.597-0.98,1.64-1.565,2.788-1.565c0.598,0,1.184,0.165,1.696,0.478
	c1.535,0.936,2.024,2.947,1.089,4.484C5.454,16.015,4.411,16.601,3.262,16.601z M3.267,11.072c-0.797,0-1.521,0.405-1.935,1.086
	c-0.314,0.517-0.409,1.124-0.267,1.712s0.505,1.084,1.021,1.398c1.041,0.633,2.481,0.276,3.111-0.754
	c0.648-1.066,0.31-2.462-0.756-3.11C4.086,11.187,3.68,11.072,3.267,11.072z"/>
<circle fill="#35495E" cx="14.25" cy="4.515" r="2.767"/>
<path fill="#FFFFFF" d="M14.247,7.551c-0.555,0-1.1-0.152-1.577-0.443c-1.429-0.871-1.883-2.742-1.012-4.172
	c0.556-0.911,1.525-1.455,2.594-1.455c0.556,0,1.101,0.153,1.577,0.443c1.429,0.871,1.884,2.742,1.013,4.172
	C16.286,7.008,15.316,7.551,14.247,7.551z M14.252,2.016c-0.88,0-1.68,0.449-2.137,1.199c-0.717,1.177-0.344,2.718,0.834,3.436
	c0.392,0.239,0.841,0.365,1.297,0.365c0.881,0,1.68-0.447,2.138-1.198c0.717-1.178,0.342-2.719-0.834-3.437
	C15.159,2.143,14.709,2.016,14.252,2.016z"/>
<circle fill="#26B99A" cx="16.589" cy="6.572" r="1.48"/>
<path fill="#FFFFFF" d="M16.587,8.32c-0.319,0-0.633-0.089-0.908-0.256C15.28,7.821,15,7.438,14.89,6.984
	c-0.11-0.454-0.037-0.924,0.206-1.322c0.319-0.525,0.878-0.839,1.493-0.839c0.32,0,0.634,0.089,0.909,0.256
	c0.823,0.502,1.084,1.579,0.583,2.402C17.761,8.007,17.203,8.32,16.587,8.32z M16.589,5.359c-0.427,0-0.814,0.217-1.036,0.581
	c-0.169,0.277-0.219,0.603-0.143,0.917c0.077,0.314,0.271,0.581,0.547,0.75c0.558,0.339,1.33,0.148,1.666-0.404
	c0.348-0.571,0.167-1.318-0.404-1.667C17.028,5.42,16.811,5.359,16.589,5.359z"/>
</svg>
