<?xml version="1.0" encoding="utf-8"?>
<!-- Generator: Adobe Illustrator 15.0.2, SVG Export Plug-In  -->
<!DOCTYPE svg PUBLIC "-//W3C//DTD SVG 1.1//EN" "http://www.w3.org/Graphics/SVG/1.1/DTD/svg11.dtd" [
	<!ENTITY ns_flows "http://ns.adobe.com/Flows/1.0/">
]>
<svg version="1.1"
	 xmlns="http://www.w3.org/2000/svg" xmlns:xlink="http://www.w3.org/1999/xlink" xmlns:a="http://ns.adobe.com/AdobeSVGViewerExtensions/3.0/"
	 x="0px" y="0px" width="30px" height="28px" viewBox="-4.635 -3.169 30 28"
	 overflow="visible" enable-background="new -4.635 -3.169 30 28" xml:space="preserve">
<defs>
</defs>
<path fill="#26B99A" d="M4.69,13.613c-0.381,0-0.746-0.178-0.977-0.512c-0.381-0.544-0.232-1.281,0.307-1.65
	c1.561-1.078,3.225-1.977,4.848-2.846l0.301-0.16c1.662-0.904,3.367-1.783,5.066-2.613c0.352-0.17,0.691-0.348,1.043-0.531
	c1.271-0.656,2.578-1.333,4.004-1.668c0.631-0.153,1.281,0.244,1.424,0.882c0.152,0.636-0.244,1.276-0.885,1.43
	c-1.141,0.265-2.311,0.875-3.455,1.465C16,7.6,15.643,7.786,15.288,7.961c-1.668,0.816-3.357,1.682-5,2.572l-0.291,0.16
	c-1.572,0.842-3.184,1.709-4.639,2.711C5.153,13.547,4.924,13.613,4.69,13.613z"/>
<path fill="#26B99A" d="M5.245,16.684c-0.248,0-0.502-0.104-0.676-0.315c-0.137-0.16-0.275-0.317-0.422-0.476
	c-0.387-0.418-0.82-0.799-1.287-1.203c-0.738-0.651-1.506-1.32-2.107-2.195c-0.885-1.271-0.914-3.098-0.064-4.879
	C1.659,5.55,3.44,4.123,5.231,3.976c0.926-0.076,2.543,0.569,3.434,1.389c0.504,0.468,0.752,0.967,0.752,1.478
	c0,0.494-0.387,0.891-0.885,0.891c-0.479,0-2.117-1.9-3.16-1.986C4.249,5.654,2.977,6.918,2.29,8.371
	c-0.559,1.2-0.59,2.365-0.076,3.111c0.482,0.691,1.135,1.264,1.82,1.869c0.479,0.417,0.973,0.847,1.416,1.335
	c0.168,0.171,0.32,0.354,0.482,0.532c0.311,0.376,0.264,0.936-0.117,1.256C5.657,16.615,5.45,16.684,5.245,16.684z"/>
<path fill="#26B99A" d="M6.868,21.913c-0.365,0-0.723-0.089-1.068-0.272c-1.566-0.832-2.039-2.996-2.318-4.291l-0.025-0.086
	c-0.098-0.477-0.189-0.982-0.26-1.504c-0.123-0.844,0.426-1.638,1.225-1.762c0.811-0.123,1.547,0.46,1.664,1.309
	c0.066,0.445,0.133,0.854,0.225,1.252l0.016,0.092c0.193,0.842,0.359,1.449,0.527,1.824c0.113-0.196,0.25-0.481,0.434-0.883
	c0.326-0.781,1.195-1.125,1.934-0.773c0.732,0.355,1.057,1.274,0.721,2.055c-0.539,1.257-1.195,2.473-2.314,2.9
	C7.377,21.867,7.118,21.913,6.868,21.913z"/>
<path fill="#35495E" d="M3.877,17.925c-0.484,0-0.967-0.033-1.439-0.109c-1.674-0.27-2.188-1.251-2.346-1.809
	c-0.488-1.696,1.094-3.075,1.623-3.528c0.34-0.305,0.6-0.506,0.859-0.691c0-0.038,0-0.076,0-0.115
	c-0.025-0.422-0.041-0.85-0.072-1.271c-0.309-5.375,1.09-8.727,4.172-9.976c4.4-1.778,9.387,2.391,11.359,5.769
	c1.258,2.132,1.004,3.869,0.576,4.95c-1.246,3.136-5.373,4.657-8.363,5.53l-0.291,0.084C8.151,17.289,5.983,17.925,3.877,17.925z
	 M8.883,3.563c-0.307,0-0.602,0.051-0.875,0.16c-1.883,0.763-2.102,3.938-1.949,6.472c0.025,0.435,0.047,0.875,0.066,1.31
	c0.041,0.878,0.082,1.728,0.162,2.554c0.916-0.199,1.832-0.469,2.666-0.713l0.295-0.086c4.619-1.348,5.779-2.729,6.055-3.434
	c0.133-0.32,0.234-0.859-0.336-1.834C13.801,6.006,11.014,3.563,8.883,3.563z"/>
<path fill="#26B99A" d="M10.567,19.639c-0.58,0-1.191-0.073-1.822-0.205c-0.508-0.112-0.859-0.565-0.859-1.066
	c-0.311-0.312-0.402-0.791-0.213-1.216c0.209-0.455,0.406-0.923,0.596-1.374c0.584-1.381,1.053-2.472,1.643-3.082
	c1.227-1.252,2.451-1.152,3.078-0.982c1.164,0.316,2.137,1.396,2.473,2.752c0.35,1.418-0.062,2.84-1.09,3.803
	C13.405,19.168,12.088,19.639,10.567,19.639z M9.94,17.416c0.875,0.086,2.111,0.033,2.941-0.742c0.621-0.58,0.555-1.303,0.463-1.682
	c-0.143-0.572-0.535-1.068-0.932-1.173c-0.279-0.076-0.6,0.056-0.941,0.401c-0.305,0.316-0.797,1.479-1.195,2.409
	C10.17,16.89,10.057,17.151,9.94,17.416z"/>
</svg>
