<?xml version="1.0" encoding="utf-8"?>
<!-- Generator: Adobe Illustrator 15.0.2, SVG Export Plug-In  -->
<!DOCTYPE svg PUBLIC "-//W3C//DTD SVG 1.1//EN" "http://www.w3.org/Graphics/SVG/1.1/DTD/svg11.dtd" [
	<!ENTITY ns_flows "http://ns.adobe.com/Flows/1.0/">
]>
<svg version="1.1"
	 xmlns="http://www.w3.org/2000/svg" xmlns:xlink="http://www.w3.org/1999/xlink" xmlns:a="http://ns.adobe.com/AdobeSVGViewerExtensions/3.0/"
	 x="0px" y="0px" width="139px" height="37px" viewBox="-5.045 -4.806 139 37"
	 overflow="visible" enable-background="new -5.045 -4.806 139 37" xml:space="preserve">
<defs>
</defs>
<path fill="#414042" d="M14.488,10.684c0,2.102-1.702,3.805-3.804,3.805H3.806C1.704,14.489,0,12.786,0,10.684V3.806
	C0,1.705,1.704,0,3.806,0h6.878c2.102,0,3.804,1.705,3.804,3.806V10.684z"/>
<path fill="#8DC63F" d="M25,16.244c0,1.792-1.453,3.247-3.246,3.247h-8.303c-1.792,0-3.244-1.455-3.244-3.247V7.943
	c0-1.794,1.452-3.247,3.244-3.247h8.303C23.547,4.696,25,6.149,25,7.943V16.244z"/>
<path fill="#A7A9AC" d="M16.724,22.026c0,1.928-1.564,3.492-3.492,3.492H6.119c-1.927,0-3.488-1.564-3.488-3.492v-7.112
	c0-1.929,1.562-3.49,3.488-3.49h7.113c1.928,0,3.492,1.562,3.492,3.49V22.026z"/>
<path fill="#414042" d="M38.292,3.069c0.469,0,0.878,0.158,1.208,0.484c0.335,0.325,0.504,0.721,0.504,1.192
	c0,0.461-0.169,0.859-0.504,1.192c-0.33,0.335-0.739,0.505-1.208,0.505c-0.438,0-0.824-0.173-1.16-0.515
	c-0.333-0.336-0.503-0.732-0.503-1.183c0-0.44,0.17-0.829,0.503-1.168C37.468,3.235,37.854,3.069,38.292,3.069z M36.879,9.14h2.855
	v14.438h-2.855V9.14z"/>
<path fill="#414042" d="M43.156,22.545v-3.076c0.805,0.563,1.633,1.02,2.471,1.373c0.845,0.348,1.556,0.524,2.127,0.524
	c0.598,0,1.11-0.149,1.54-0.44c0.431-0.292,0.641-0.641,0.641-1.052c0-0.418-0.137-0.766-0.413-1.042
	c-0.276-0.278-0.877-0.678-1.796-1.202c-1.843-1.024-3.049-1.897-3.617-2.627c-0.57-0.729-0.857-1.52-0.857-2.379
	c0-1.109,0.434-2.015,1.296-2.714c0.86-0.703,1.978-1.052,3.335-1.052c1.412,0,2.858,0.397,4.345,1.193v2.827
	c-1.693-1.028-3.078-1.541-4.156-1.541c-0.555,0-1.001,0.119-1.341,0.354c-0.34,0.236-0.514,0.548-0.514,0.933
	c0,0.34,0.158,0.655,0.463,0.959c0.308,0.305,0.853,0.67,1.625,1.099l1.021,0.581c2.409,1.365,3.612,2.866,3.612,4.52
	c0,1.182-0.467,2.154-1.391,2.912c-0.929,0.758-2.113,1.137-3.572,1.137c-0.855,0-1.62-0.091-2.288-0.277
	C45.016,23.372,44.173,23.035,43.156,22.545z"/>
<path fill="#414042" d="M65.303,14.901v6.137c0,0.491,0.164,0.735,0.504,0.735c0.345,0,0.881-0.256,1.612-0.769v1.741
	c-0.646,0.419-1.169,0.706-1.562,0.856c-0.391,0.151-0.803,0.229-1.23,0.229c-1.221,0-1.945-0.481-2.166-1.446
	c-1.215,0.943-2.507,1.412-3.876,1.412c-1.004,0-1.843-0.33-2.512-0.995c-0.667-0.663-1.006-1.5-1.006-2.503
	c0-0.911,0.328-1.723,0.982-2.438c0.653-0.72,1.582-1.286,2.785-1.705l3.655-1.254v-0.771c0-1.735-0.866-2.605-2.605-2.605
	c-1.555,0-3.072,0.807-4.549,2.418v-3.124c1.109-1.306,2.706-1.961,4.789-1.961c1.556,0,2.807,0.41,3.749,1.224
	c0.312,0.262,0.597,0.609,0.845,1.042c0.256,0.435,0.41,0.869,0.479,1.307C65.267,12.863,65.303,13.684,65.303,14.901z
	 M62.49,20.722v-4.283l-1.912,0.737c-0.973,0.387-1.659,0.775-2.065,1.17c-0.401,0.395-0.604,0.883-0.604,1.467
	c0,0.596,0.19,1.083,0.576,1.458c0.382,0.379,0.873,0.566,1.482,0.566C60.875,21.837,61.72,21.464,62.49,20.722z"/>
<path fill="#414042" d="M72.739,4.352V9.14h4.051v1.257h-4.051v8.584c0,1.383,0.113,2.29,0.338,2.723
	c0.228,0.436,0.83,0.651,1.814,0.651c0.751,0,1.633-0.234,2.636-0.705v1.473c-1.013,0.491-2.011,0.739-2.985,0.739
	c-0.95,0-1.741-0.271-2.383-0.818c-0.638-0.541-0.955-1.294-0.955-2.258V10.396H67.31V9.14h3.895V5.705l1.049-1.354H72.739z"/>
<path fill="#414042" d="M86.332,8.858c2.094,0,3.839,0.717,5.232,2.147c1.396,1.436,2.096,3.223,2.096,5.369
	c0,2.135-0.699,3.918-2.096,5.347c-1.393,1.423-3.138,2.14-5.232,2.14c-2.095,0-3.844-0.717-5.247-2.14
	c-1.409-1.429-2.111-3.212-2.111-5.347c0-2.146,0.702-3.934,2.111-5.369C82.487,9.575,84.236,8.858,86.332,8.858z M86.332,22.354
	c1.621,0,2.976-0.568,4.062-1.7c1.093-1.137,1.633-2.564,1.633-4.279c0-1.706-0.545-3.135-1.638-4.286
	c-1.096-1.152-2.447-1.725-4.057-1.725c-1.632,0-2.995,0.569-4.089,1.711c-1.09,1.14-1.636,2.573-1.636,4.3
	c0,1.715,0.546,3.143,1.636,4.279C83.337,21.786,84.699,22.354,86.332,22.354z"/>
<path fill="#414042" d="M103.751,8.858c2.095,0,3.838,0.717,5.236,2.147c1.392,1.436,2.09,3.223,2.09,5.369
	c0,2.135-0.698,3.918-2.09,5.347c-1.398,1.423-3.142,2.14-5.236,2.14c-2.092,0-3.842-0.717-5.247-2.14
	c-1.408-1.429-2.111-3.212-2.111-5.347c0-2.146,0.703-3.934,2.111-5.369C99.909,9.575,101.659,8.858,103.751,8.858z M103.751,22.354
	c1.625,0,2.977-0.568,4.062-1.7c1.092-1.137,1.637-2.564,1.637-4.279c0-1.706-0.547-3.135-1.642-4.286
	c-1.094-1.152-2.445-1.725-4.057-1.725c-1.629,0-2.995,0.569-4.086,1.711c-1.091,1.14-1.639,2.573-1.639,4.3
	c0,1.715,0.548,3.143,1.639,4.279C100.756,21.786,102.122,22.354,103.751,22.354z"/>
<path fill="#414042" d="M116.26,1.656v21.921h-1.551V1.656H116.26z"/>
<path fill="#414042" d="M128.439,10.082v1.663c-1.467-0.984-2.786-1.472-3.957-1.472c-0.867,0-1.599,0.233-2.195,0.701
	c-0.597,0.469-0.894,1.048-0.894,1.74c0,0.486,0.18,0.938,0.54,1.352c0.363,0.41,1.365,0.932,3,1.566
	c1.636,0.63,2.705,1.288,3.206,1.969c0.502,0.678,0.754,1.436,0.754,2.272c0,1.121-0.454,2.065-1.368,2.835
	c-0.911,0.769-2.031,1.152-3.37,1.152c-1.454,0-2.901-0.44-4.333-1.316v-1.507c1.708,0.878,3.218,1.316,4.538,1.316
	c0.888,0,1.617-0.234,2.186-0.705c0.573-0.473,0.857-1.071,0.857-1.804c0-0.502-0.187-0.965-0.556-1.39
	c-0.374-0.422-1.377-0.958-3.018-1.607c-1.637-0.652-2.697-1.29-3.186-1.925c-0.483-0.632-0.729-1.339-0.729-2.11
	c0-1.097,0.455-2.032,1.36-2.801c0.903-0.77,2.003-1.154,3.304-1.154C125.763,8.858,127.048,9.269,128.439,10.082z"/>
</svg>
