<?xml version="1.0" encoding="utf-8"?>
<!-- Generator: Adobe Illustrator 15.0.2, SVG Export Plug-In  -->
<!DOCTYPE svg PUBLIC "-//W3C//DTD SVG 1.1//EN" "http://www.w3.org/Graphics/SVG/1.1/DTD/svg11.dtd" [
	<!ENTITY ns_flows "http://ns.adobe.com/Flows/1.0/">
]>
<svg version="1.1"
	 xmlns="http://www.w3.org/2000/svg" xmlns:xlink="http://www.w3.org/1999/xlink" xmlns:a="http://ns.adobe.com/AdobeSVGViewerExtensions/3.0/"
	 x="0px" y="0px" width="16px" height="17px" viewBox="-2.154 -2.762 16 17"
	 overflow="visible" enable-background="new -2.154 -2.762 16 17" xml:space="preserve">
<defs>
</defs>
<path fill="#192352" d="M11.916,10.465l-3-3c0.488-0.756,0.776-1.654,0.776-2.619C9.692,2.173,7.518,0,4.846,0S0,2.173,0,4.845
	c0,2.672,2.174,4.846,4.846,4.846c0.965,0,1.863-0.287,2.619-0.775l3,3c0.1,0.101,0.264,0.101,0.363,0l1.088-1.088
	C12.018,10.729,12.018,10.565,11.916,10.465 M1.539,4.845c0-1.823,1.484-3.306,3.307-3.306c1.824,0,3.307,1.483,3.307,3.306
	c0,1.824-1.482,3.307-3.307,3.307C3.023,8.152,1.539,6.669,1.539,4.845"/>
</svg>
