<?xml version="1.0" encoding="utf-8"?>
<!-- Generator: Adobe Illustrator 15.0.2, SVG Export Plug-In  -->
<!DOCTYPE svg PUBLIC "-//W3C//DTD SVG 1.1//EN" "http://www.w3.org/Graphics/SVG/1.1/DTD/svg11.dtd" [
	<!ENTITY ns_flows "http://ns.adobe.com/Flows/1.0/">
]>
<svg version="1.1"
	 xmlns="http://www.w3.org/2000/svg" xmlns:xlink="http://www.w3.org/1999/xlink" xmlns:a="http://ns.adobe.com/AdobeSVGViewerExtensions/3.0/"
	 x="0px" y="0px" width="28px" height="28px" viewBox="-7.928 -4.527 28 28"
	 overflow="visible" enable-background="new -7.928 -4.527 28 28" xml:space="preserve">
<defs>
</defs>
<path fill="#35495E" d="M10.511,12.678c0.009,0.238-0.178,0.438-0.417,0.445l-5.075,0.166c-0.238,0.008-0.437-0.178-0.445-0.418
	c-0.008-0.236,0.177-0.438,0.416-0.445l5.076-0.166C10.305,12.25,10.504,12.438,10.511,12.678z"/>
<path fill="#35495E" d="M1.055,5.361c-0.009-0.24,0.179-0.439,0.418-0.447l5.074-0.168c0.239-0.006,0.438,0.18,0.446,0.418
	C7,5.404,6.815,5.604,6.576,5.609L1.5,5.777C1.261,5.785,1.062,5.6,1.055,5.361z"/>
<path fill="#35495E" d="M11.391,2.316c0.009,0.238-0.179,0.438-0.418,0.445L5.899,2.928C5.66,2.936,5.462,2.75,5.453,2.51
	C5.445,2.271,5.631,2.074,5.871,2.064l5.075-0.166C11.185,1.891,11.384,2.078,11.391,2.316z"/>
<path fill="#35495E" d="M6.661,16.523c0.007,0.238-0.179,0.439-0.418,0.447l-4.94,0.164c-0.238,0.006-0.438-0.18-0.446-0.42
	c-0.008-0.238,0.179-0.438,0.418-0.445l4.939-0.164C6.452,16.098,6.652,16.285,6.661,16.523z"/>
<path fill="#35495E" d="M11.106,0c-0.239,0.01-0.425,0.209-0.418,0.447c0.049,1.494-0.131,2.906-0.486,4.139L8.015,4.658
	C7.776,4.666,7.589,4.867,7.597,5.105c0.009,0.238,0.208,0.424,0.447,0.418l1.862-0.061C9.081,7.605,7.684,9.031,6.056,9.086
	C3.823,9.16,1.851,6.633,1.141,3.125l3.291-0.107C4.669,3.01,4.857,2.809,4.849,2.572c-0.008-0.24-0.208-0.426-0.447-0.42
	L0.996,2.266c-0.066-0.486-0.113-0.982-0.13-1.494C0.858,0.533,0.658,0.346,0.418,0.354S-0.007,0.561,0,0.801
	c0.142,4.279,2.054,7.83,4.524,8.85c-2.398,1.178-4.073,4.846-3.93,9.127c0.008,0.238,0.208,0.426,0.446,0.418
	c0.237-0.008,0.424-0.209,0.417-0.445c-0.066-2.004,0.28-3.859,0.908-5.334l1.187-0.039c0.237-0.008,0.424-0.207,0.417-0.445
	c-0.009-0.238-0.208-0.426-0.446-0.418l-0.721,0.023c0.833-1.461,1.985-2.383,3.287-2.426c2.208-0.074,4.162,2.393,4.893,5.836
	l-3.265,0.111c-0.239,0.008-0.426,0.205-0.417,0.445c0.007,0.238,0.208,0.426,0.446,0.416l3.39-0.109
	c0.076,0.521,0.127,1.061,0.146,1.615c0.007,0.238,0.207,0.426,0.447,0.418c0.239-0.008,0.426-0.207,0.417-0.445
	c-0.141-4.283-2.052-7.832-4.523-8.852c2.398-1.178,4.072-4.846,3.932-9.127C11.544,0.182,11.344-0.006,11.106,0z"/>
</svg>
